<?xml version="1.0" standalone="no"?>
<!DOCTYPE svg PUBLIC "-//W3C//DTD SVG 20010904//EN"
 "http://www.w3.org/TR/2001/REC-SVG-20010904/DTD/svg10.dtd">
<svg version="1.0" xmlns="http://www.w3.org/2000/svg"
 width="200.000000pt" height="200.000000pt" viewBox="0 0 200.000000 200.000000"
 preserveAspectRatio="xMidYMid meet">

<g transform="translate(0.000000,200.000000) scale(0.100000,-0.100000)"
fill="#000000" stroke="none">
<path d="M0 1000 l0 -1000 1000 0 1000 0 0 1000 0 1000 -1000 0 -1000 0 0
-1000z m1016 713 c11 -10 58 -65 104 -122 156 -195 341 -367 534 -501 62 -43
76 -57 76 -79 0 -15 -8 -31 -19 -38 -57 -35 -232 -186 -330 -284 -102 -100
-181 -194 -309 -363 -58 -77 -69 -74 -154 39 -134 178 -338 375 -561 538 -43
32 -80 64 -84 73 -9 23 13 45 159 164 168 136 362 344 469 502 35 51 73 88 90
88 3 0 15 -8 25 -17z m292 -1263 c-7 -10 -14 -17 -17 -15 -4 4 18 35 25 35 2
0 -1 -9 -8 -20z m67 10 c3 -6 -1 -7 -9 -4 -18 7 -21 14 -7 14 6 0 13 -4 16
-10z m-21 -18 c4 9 5 9 5 -2 -2 -30 1 -41 11 -35 16 10 11 -1 -7 -16 -11 -9
-14 -10 -9 -2 4 7 -2 20 -14 30 -11 10 -20 21 -20 26 0 5 6 4 14 -2 11 -9 15
-9 20 1z m-44 -47 c14 -19 14 -19 -2 -6 -10 7 -18 18 -18 24 0 6 1 8 3 6 1 -2
9 -13 17 -24z"/>
<path d="M894 1488 c-127 -95 -375 -361 -424 -455 l-21 -41 21 -41 c60 -118
418 -459 516 -491 40 -13 63 -3 150 66 143 113 414 421 414 471 0 46 -100 172
-266 334 -66 63 -149 136 -185 162 -90 64 -115 63 -205 -5z m197 -35 c79 -57
294 -267 359 -348 56 -71 65 -100 44 -140 -60 -116 -373 -432 -461 -466 -13
-5 -33 -5 -46 0 -65 25 -360 294 -443 404 -62 83 -60 103 19 202 68 85 295
314 362 364 58 44 90 41 166 -16z"/>
<path d="M986 1380 c-16 -41 -66 -203 -66 -215 0 -7 10 -15 23 -17 21 -3 22
-5 19 -110 l-4 -108 40 0 40 0 -5 115 -6 115 27 0 c32 0 33 -7 -23 136 -24 60
-41 93 -45 84z"/>
<path d="M755 1082 c-94 -52 -97 -110 -8 -155 54 -28 152 -47 235 -47 136 0
288 52 301 102 7 24 -15 65 -38 74 -8 3 -12 11 -9 18 3 8 -16 16 -58 24 -34 6
-63 10 -65 8 -2 -2 2 -15 8 -30 9 -20 19 -26 43 -26 35 0 76 -24 76 -44 0 -45
-116 -87 -242 -87 -184 -1 -273 77 -143 126 25 10 45 21 45 24 0 11 -57 41
-77 41 -10 0 -40 -13 -68 -28z"/>
<path d="M957 763 c-3 -60 -3 -111 0 -115 2 -5 24 -8 49 -8 l44 0 0 84 c0 46
-3 98 -6 115 -6 28 -10 31 -44 31 l-37 0 -6 -107z"/>
</g>
</svg>
